<svg version="1.1" xmlns="http://www.w3.org/2000/svg" style="display: block;" viewBox="0 0 2048 2048" width="1920" height="1920" preserveAspectRatio="none">
<defs>
	<linearGradient id="Gradient1" gradientUnits="userSpaceOnUse" x1="1253.78" y1="604.832" x2="1251.15" y2="608.778">
		<stop class="stop0" offset="0" stop-opacity="1" stop-color="rgb(116,111,102)"/>
		<stop class="stop1" offset="1" stop-opacity="1" stop-color="rgb(195,185,158)"/>
	</linearGradient>
	<linearGradient id="Gradient2" gradientUnits="userSpaceOnUse" x1="682.909" y1="1037.92" x2="717.281" y2="1006.81">
		<stop class="stop0" offset="0" stop-opacity="1" stop-color="rgb(118,104,75)"/>
		<stop class="stop1" offset="1" stop-opacity="1" stop-color="rgb(173,143,114)"/>
	</linearGradient>
</defs>
<path transform="translate(0,0)" fill="rgb(255,255,254)" d="M 0 0 L 2048 0 L 2048 2048 L 0 2048 L 0 0 z"/>
<path transform="translate(0,0)" fill="rgb(1,1,1)" d="M 1021.36 502.015 C 1029.41 485.564 1034.59 460.698 1045.4 438.656 C 1085.66 356.602 1151.63 300.308 1238.36 271.532 C 1255.21 265.494 1322.53 248.874 1335.66 256.857 C 1352.51 273.408 1327.33 337.154 1320.64 352.741 C 1275.98 456.878 1190.31 518.346 1081.99 544.44 C 1090.4 548.756 1115.3 551.353 1125.47 555.384 C 1122.11 550.956 1121.06 552.991 1118.31 550.144 C 1133.2 548.618 1207.74 576.71 1222.25 586.419 C 1235.53 590.474 1280.69 621.784 1291.76 631.928 C 1299.43 637.345 1317.16 654.727 1322.74 662.154 C 1363.62 704.494 1403.82 779.74 1407.64 838.821 C 1408.91 846.61 1409.94 853.043 1410.57 860.885 C 1415.81 932.067 1396.73 1002.92 1356.45 1061.84 C 1265.42 1200.32 1078.95 1254.83 922.443 1214.79 C 903.21 1209.87 885.405 1202.26 866.788 1196.97 C 830.227 1210.49 787.789 1232.04 751.775 1244.47 C 740.759 1249.98 726.423 1255.42 714.799 1260.31 C 712.042 1258.36 709.318 1256.35 706.629 1254.31 L 706.126 1253.38 L 702.311 1247.38 C 699.22 1246.94 696.17 1248.58 694.121 1250.92 C 693.838 1249.57 693.643 1247.49 693.459 1246.06 C 706.427 1217.73 716.743 1184.28 728.59 1155.05 C 731.317 1148.32 745.155 1113.78 745.747 1108.92 L 742.49 1107.89 C 740.208 1104 734.787 1097.76 731.715 1094.27 C 692.75 1050.03 664.295 1000.58 652.891 942.029 C 654.933 935.531 655.856 937.531 656.372 929.983 L 653.996 916.188 C 652.357 912.737 651.089 907.695 649.962 903.907 C 648.372 898.219 648.92 857.648 650.846 851.378 C 652.57 853.847 651.476 853.32 653.782 853.838 C 654.624 841.626 657.951 825.529 660.705 813.646 C 688.82 692.318 792.697 596.82 909.963 561.768 C 917.059 559.647 934.828 556.189 939.095 551.188 L 938.182 550.993 C 849.829 532.027 789.557 496.449 737.155 420.001 C 728.425 407.264 706.876 369.645 709.81 354.414 C 710.303 351.887 713.081 347.722 715.648 347.02 C 753.47 336.678 819.374 346.752 854.31 359.029 C 926.081 384.249 988.453 433.898 1021.36 502.015 z"/>
<path transform="translate(0,0)" fill="rgb(244,186,65)" d="M 1039.56 552.999 C 1053.93 550.764 1067.66 546.959 1081.99 544.44 C 1090.4 548.756 1115.3 551.353 1125.47 555.384 C 1122.11 550.956 1121.06 552.991 1118.31 550.144 C 1133.2 548.618 1207.74 576.71 1222.25 586.419 C 1235.53 590.474 1280.69 621.784 1291.76 631.928 C 1299.43 637.345 1317.16 654.727 1322.74 662.154 C 1363.62 704.494 1403.82 779.74 1407.64 838.821 C 1408.91 846.61 1409.94 853.043 1410.57 860.885 C 1415.81 932.067 1396.73 1002.92 1356.45 1061.84 C 1265.42 1200.32 1078.95 1254.83 922.443 1214.79 C 903.21 1209.87 885.405 1202.26 866.788 1196.97 C 830.227 1210.49 787.789 1232.04 751.775 1244.47 C 740.759 1249.98 726.423 1255.42 714.799 1260.31 C 712.042 1258.36 709.318 1256.35 706.629 1254.31 L 706.126 1253.38 L 702.311 1247.38 C 699.22 1246.94 696.17 1248.58 694.121 1250.92 C 693.838 1249.57 693.643 1247.49 693.459 1246.06 C 706.427 1217.73 716.743 1184.28 728.59 1155.05 C 731.317 1148.32 745.155 1113.78 745.747 1108.92 L 742.49 1107.89 C 740.208 1104 734.787 1097.76 731.715 1094.27 C 692.75 1050.03 664.295 1000.58 652.891 942.029 C 654.933 935.531 655.856 937.531 656.372 929.983 L 653.996 916.188 C 652.357 912.737 651.089 907.695 649.962 903.907 C 648.372 898.219 648.92 857.648 650.846 851.378 C 652.57 853.847 651.476 853.32 653.782 853.838 C 654.624 841.626 657.951 825.529 660.705 813.646 C 688.82 692.318 792.697 596.82 909.963 561.768 C 917.059 559.647 934.828 556.189 939.095 551.188 C 969.419 555.401 987.114 557.187 1017.77 557.168 C 1018.11 569.319 1017.98 580.642 1017.78 592.791 C 976.966 596.222 929.099 619.151 899.288 646.381 C 777.032 758.056 771.172 964.153 878.301 1088.28 C 954.383 1176.43 1078.08 1187.83 1163.91 1108.06 C 1283.51 996.917 1290.88 780.406 1179.56 661.421 C 1143.07 622.247 1093.6 594.784 1039.33 592.027 C 1038.77 579.503 1039.05 565.508 1039.56 552.999 z"/>
<path transform="translate(0,0)" fill="rgb(126,111,90)" d="M 1347.19 1063.71 C 1348.34 1063.46 1350.15 1062.41 1351.78 1061.82 L 1351.9 1062.57 L 1353.28 1063.31 L 1356.45 1061.84 C 1265.42 1200.32 1078.95 1254.83 922.443 1214.79 C 903.21 1209.87 885.405 1202.26 866.788 1196.97 C 830.227 1210.49 787.789 1232.04 751.775 1244.47 C 740.759 1249.98 726.423 1255.42 714.799 1260.31 C 712.042 1258.36 709.318 1256.35 706.629 1254.31 L 706.126 1253.38 C 713.718 1251.85 718.548 1250.17 725.695 1247.21 C 773.092 1227.59 819.826 1206.56 867.287 1187.1 C 1000.79 1251.47 1202.67 1216.51 1306.55 1110.8 C 1322.69 1094.37 1332.78 1080.22 1347.19 1063.71 z"/>
<path transform="translate(0,0)" fill="rgb(126,116,92)" d="M 706.629 1254.31 C 719.294 1259.41 732.362 1245.93 745.048 1243.8 C 746.556 1243.54 748.613 1243.43 750.57 1243.11 L 751.775 1244.47 C 740.759 1249.98 726.423 1255.42 714.799 1260.31 C 712.042 1258.36 709.318 1256.35 706.629 1254.31 z"/>
<path transform="translate(0,0)" fill="rgb(126,116,92)" d="M 1405.68 866.773 L 1406.25 865.794 C 1407.49 866.991 1407.12 866.984 1408.57 867.468 C 1408.75 862.563 1407.97 864.633 1410.57 860.885 C 1415.81 932.067 1396.73 1002.92 1356.45 1061.84 L 1353.28 1063.31 L 1351.9 1062.57 L 1351.78 1061.82 C 1350.15 1062.41 1348.34 1063.46 1347.19 1063.71 C 1390.16 999.906 1407.64 943.557 1405.68 866.773 z"/>
<path transform="translate(0,0)" fill="rgb(126,116,92)" d="M 1320.04 666.155 L 1320.31 664.983 C 1318.59 662.376 1317.3 660.733 1315.38 658.339 C 1317.23 658.949 1319.92 661.584 1321.61 662.999 L 1322.74 662.154 C 1363.62 704.494 1403.82 779.74 1407.64 838.821 L 1407.18 840.663 C 1406.54 843.284 1406.4 844.811 1406.12 847.487 L 1403.73 850.285 C 1392.32 767.749 1370.44 730.011 1320.04 666.155 z"/>
<path transform="translate(0,0)" fill="url(#Gradient2)" d="M 656.372 929.983 C 668.474 1000.37 698.903 1050.11 746.354 1101.84 C 748.115 1103.76 748.564 1106.71 748.34 1109.22 L 745.747 1108.92 L 742.49 1107.89 C 740.208 1104 734.787 1097.76 731.715 1094.27 C 692.75 1050.03 664.295 1000.58 652.891 942.029 C 654.933 935.531 655.856 937.531 656.372 929.983 z"/>
<path transform="translate(0,0)" fill="rgb(170,166,162)" d="M 1125.47 555.384 C 1122.11 550.956 1121.06 552.991 1118.31 550.144 C 1133.2 548.618 1207.74 576.71 1222.25 586.419 C 1224.82 592.822 1236.97 591.593 1237.54 601.641 C 1205.77 581.26 1162.08 564.732 1125.47 555.384 z"/>
<path transform="translate(0,0)" fill="rgb(123,122,123)" d="M 745.747 1108.92 L 748.34 1109.22 C 745.413 1121.33 739.591 1135.78 735.189 1147.68 L 713.759 1205.03 C 709.914 1215.11 699.276 1237.62 702.311 1247.38 C 699.22 1246.94 696.17 1248.58 694.121 1250.92 C 693.838 1249.57 693.643 1247.49 693.459 1246.06 C 706.427 1217.73 716.743 1184.28 728.59 1155.05 C 731.317 1148.32 745.155 1113.78 745.747 1108.92 z"/>
<path transform="translate(0,0)" fill="url(#Gradient1)" d="M 1222.25 586.419 C 1235.53 590.474 1280.69 621.784 1291.76 631.928 C 1282.16 631.236 1270.67 618.95 1259.9 615.738 C 1252.51 612.065 1244.49 606.322 1237.54 601.641 C 1236.97 591.593 1224.82 592.822 1222.25 586.419 z"/>
<path transform="translate(0,0)" fill="rgb(164,149,125)" d="M 1259.9 615.738 C 1270.67 618.95 1282.16 631.236 1291.76 631.928 C 1299.43 637.345 1317.16 654.727 1322.74 662.154 L 1321.61 662.999 C 1319.92 661.584 1317.23 658.949 1315.38 658.339 C 1317.3 660.733 1318.59 662.376 1320.31 664.983 L 1320.04 666.155 C 1319.85 666.052 1302.3 649.187 1300.13 647.264 C 1287.4 635.914 1273.96 625.384 1259.9 615.738 z"/>
<path transform="translate(0,0)" fill="rgb(200,184,156)" d="M 650.846 851.378 C 652.57 853.847 651.476 853.32 653.782 853.838 C 654.409 875.573 652.405 892.317 653.996 916.188 C 652.357 912.737 651.089 907.695 649.962 903.907 C 648.372 898.219 648.92 857.648 650.846 851.378 z"/>
<path transform="translate(0,0)" fill="rgb(126,111,90)" d="M 1407.64 838.821 C 1408.91 846.61 1409.94 853.043 1410.57 860.885 C 1407.97 864.633 1408.75 862.563 1408.57 867.468 C 1407.12 866.984 1407.49 866.991 1406.25 865.794 L 1405.68 866.773 C 1405.25 865.601 1403.96 852.451 1403.73 850.285 L 1406.12 847.487 C 1406.4 844.811 1406.54 843.284 1407.18 840.663 L 1407.64 838.821 z"/>
<path transform="translate(0,0)" fill="rgb(139,149,79)" d="M 1039.7 613.27 C 1073.24 614.658 1101.75 627.617 1128.87 646.296 C 1180.92 677.139 1209.68 731.728 1226.21 788.174 C 1262.41 911.812 1211.42 1100.03 1071.93 1135.13 C 1028.12 1146.31 981.662 1139.53 942.882 1116.29 C 929.253 1108.13 919.274 1099.41 907.716 1088.89 C 792.493 983.233 796.76 762.337 915.196 661.362 C 945.913 635.173 977.673 618.33 1017.91 613.533 L 1019.26 628.83 C 1013.4 629.162 1007.42 629.688 1001.86 630.889 C 987.215 634.055 954.406 643.068 963.856 664.16 C 967.575 672.461 982.23 678.604 990.55 681.012 C 1013.09 687.536 1037.35 688.784 1060.27 683.511 C 1073.96 680.356 1093.65 675.254 1098.01 659.618 C 1098.97 656.168 1098.17 651.147 1095.75 648.474 C 1082.57 633.869 1057.84 630.361 1039.93 628.692 L 1039.7 613.27 z"/>
<path transform="translate(0,0)" fill="rgb(98,130,87)" d="M 1128.87 646.296 C 1180.92 677.139 1209.68 731.728 1226.21 788.174 C 1262.41 911.812 1211.42 1100.03 1071.93 1135.13 C 1028.12 1146.31 981.662 1139.53 942.882 1116.29 C 929.253 1108.13 919.274 1099.41 907.716 1088.89 L 911.011 1086.05 C 916.728 1085.27 930.438 1094.79 936.689 1097.38 C 981.158 1115.36 1039.21 1117.5 1081.68 1092.18 C 1153.23 1049.54 1186.67 985.16 1199.54 904.996 C 1213.35 819.059 1198.1 739.53 1145.65 668.792 C 1140.26 661.53 1132.91 654.203 1128.87 646.296 z"/>
<path transform="translate(0,0)" fill="rgb(1,1,1)" d="M 937.297 948.175 C 994.83 945.854 1055.08 949.6 1112.92 947.943 C 1121.77 947.689 1131.82 950.412 1131 961.534 C 1128.91 989.777 1115.11 1015.83 1096.89 1037.08 C 1076.89 1057.26 1044 1066.74 1016.17 1062.25 C 977.042 1055.79 945.985 1022.21 934.821 985.222 C 931.367 973.781 925.463 956.249 937.297 948.175 z"/>
<path transform="translate(0,0)" fill="rgb(225,77,87)" d="M 1008.98 1002.39 C 1017.07 1001.54 1024.97 1002.37 1033 1002.35 C 1046.75 1002.32 1060.09 1000.43 1073.36 1005 C 1079.61 1007.15 1084.94 1009.02 1088.05 1015.04 C 1088.17 1026.88 1062.01 1035.17 1052.42 1038.3 C 1024.42 1045.66 991.743 1036.87 972.124 1015.39 C 984.069 1005.55 994.406 1004.1 1008.98 1002.39 z"/>
<path transform="translate(0,0)" fill="rgb(1,1,1)" d="M 930.604 793.403 C 983.25 794.421 1001.13 859.287 975.064 897.638 C 964.714 912.868 952.523 916.041 935.851 919.37 C 857.609 917.974 862.271 798.286 930.604 793.403 z"/>
<path transform="translate(0,0)" fill="rgb(255,255,254)" d="M 915.851 812.041 C 941.283 810.739 934.983 838.947 917.341 848.749 C 893.436 851.652 899.782 821.748 915.851 812.041 z"/>
<path transform="translate(0,0)" fill="rgb(1,1,1)" d="M 1120.89 793.27 C 1192.47 788.531 1206.15 902.767 1138.67 917.875 C 1132.51 918.31 1125.96 918.918 1119.88 917.95 C 1073.82 910.612 1064.51 849.984 1086.29 816.043 C 1095.12 802.29 1105.62 796.598 1120.89 793.27 z"/>
<path transform="translate(0,0)" fill="rgb(255,255,254)" d="M 1113.55 811.054 C 1136.31 813.313 1127.83 843.303 1107.63 849.322 C 1085.25 844.26 1095.27 816.948 1113.55 811.054 z"/>
<path transform="translate(0,0)" fill="rgb(255,255,254)" d="M 929.321 688.189 C 948.338 686.314 953.165 697.232 949.193 714.193 C 943.653 737.843 927.415 760.331 904.691 769.816 C 876.617 772.871 881.976 747.575 889.058 730.182 C 896.801 711.165 910.358 696.202 929.321 688.189 z"/>
<path transform="translate(0,0)" fill="rgb(98,130,87)" d="M 1058.21 525.183 C 1087.41 494.266 1121.57 467.123 1152.14 437.609 C 1158.33 431.635 1165.12 425.855 1171.49 420.02 L 1256.66 343.283 C 1270.4 330.909 1287.76 313.86 1301.8 302.56 C 1305.59 303.931 1310.69 305.235 1314.71 305.005 C 1310.49 331.2 1286.09 377.895 1270.72 399.763 C 1229.38 458.445 1168.28 500.263 1098.61 517.553 C 1087.19 520.485 1070.16 523.087 1058.21 525.183 z"/>
<path transform="translate(0,0)" fill="rgb(98,130,87)" d="M 1297 278.445 L 1297.54 278.775 C 1298.65 276.324 1064.12 491.584 1044.92 510.014 C 1044.62 509.364 1044.33 508.715 1044.03 508.065 C 1066.86 389.366 1177.55 291.885 1297 278.445 z"/>
<path transform="translate(0,0)" fill="rgb(98,130,87)" d="M 736.903 377.596 C 814.748 414.811 889.145 461.775 960.404 510.348 C 971.292 517.769 983.297 525.654 993.559 533.82 C 911.504 536.341 824.993 499.309 772.971 435.268 C 758.455 417.398 745.632 399.048 736.903 377.596 z"/>
<path transform="translate(0,0)" fill="rgb(98,130,87)" d="M 753.228 362.69 C 792.655 363.983 822.864 367.303 860.71 381.761 C 894.149 394.994 927.581 418.781 954.028 443.044 C 964.773 452.901 988.352 482.706 994.469 496.041 C 999.734 504.267 1004 511.204 1007.64 520.335 C 1005.09 518.456 987.881 506.031 986.72 504.761 C 979.155 500.45 963.339 488.276 955.71 482.73 C 940.103 471.172 924.081 460.183 907.677 449.788 C 861.919 420.316 801.314 387.749 753.228 362.69 z"/>
<path transform="translate(0,0)" fill="rgb(148,177,152)" d="M 994.469 496.041 C 999.734 504.267 1004 511.204 1007.64 520.335 C 1005.09 518.456 987.881 506.031 986.72 504.761 L 987.988 503.829 C 991.077 506.021 994.227 508.127 997.434 510.145 L 998.744 509.527 C 999.091 502.873 994.672 503.05 994.469 496.041 z"/>
<path transform="translate(0,0)" fill="rgb(148,177,152)" d="M 1301.8 302.56 C 1308.63 295.802 1313.8 290.274 1320.12 283.032 L 1314.71 305.005 C 1310.69 305.235 1305.59 303.931 1301.8 302.56 z"/>
<path transform="translate(0,0)" fill="rgb(1,1,1)" d="M 754.952 1289.41 C 780.411 1286.59 814.007 1294.72 834.13 1311.12 C 857.768 1330.19 869.889 1357.95 872.576 1387.84 C 879.079 1460.18 849.635 1518.27 773.244 1525.63 C 745.887 1527.27 716.833 1521.77 694.668 1504.1 C 644.359 1464 642.172 1372.85 681.867 1324.96 C 701.851 1300.86 723.984 1291.9 754.952 1289.41 z"/>
<path transform="translate(0,0)" fill="rgb(255,255,254)" d="M 758.327 1340.23 C 785.982 1338.34 805.917 1355.34 810.493 1381.75 C 816.954 1419.05 815.884 1465.59 771.041 1474.99 C 759.594 1475.21 749.162 1474.66 739.145 1467.68 C 708.587 1446.38 709.052 1387.44 727.562 1358.66 C 734.514 1347.86 746.169 1342.4 758.327 1340.23 z"/>
<path transform="translate(0,0)" fill="rgb(1,1,1)" d="M 692.332 1554.33 C 707.744 1553.6 724.409 1554.36 739.923 1554.46 C 756.196 1554.35 771.795 1554.64 787.979 1556.09 C 844.549 1561.14 867.799 1632.41 818.967 1665.82 C 845.497 1679.53 855.368 1697.77 853.181 1727.78 C 852.012 1743.83 846.754 1756.36 835.871 1768.26 C 825.128 1777.76 817.098 1782.87 802.942 1786.67 C 796.256 1788.41 789.423 1789.54 782.53 1790.03 C 752.041 1792.48 719.137 1790.36 688.477 1790.93 C 665.916 1791.35 670.971 1761.49 671.064 1745.73 L 671.254 1693.08 L 671.036 1616.47 C 670.981 1602.7 670.769 1588.89 671.109 1575.13 C 671.516 1558.58 677.725 1556.08 692.332 1554.33 z"/>
<path transform="translate(0,0)" fill="rgb(255,255,254)" d="M 726.995 1694.72 C 748.219 1694.49 776.47 1690.16 791.998 1706.25 C 794.746 1717.53 795.189 1725.22 787.632 1734.56 C 772.239 1745.22 746.358 1742.16 727.039 1741.93 L 726.995 1694.72 z"/>
<path transform="translate(0,0)" fill="rgb(255,255,254)" d="M 727.375 1605.96 C 735.174 1605.8 743.334 1605.81 750.958 1605.57 C 765.79 1605.1 787.493 1606.12 787.064 1626.06 C 786.904 1633.49 784.806 1636.2 779.574 1641.22 C 766.192 1649.15 743.273 1646.82 727.636 1646.45 C 727.027 1634.15 727.416 1618.52 727.375 1605.96 z"/>
<path transform="translate(0,0)" fill="rgb(1,1,1)" d="M 1320.81 1343.42 C 1323.28 1343.2 1325.76 1343.11 1328.23 1343.16 C 1349.2 1343.56 1367.72 1348.47 1383.19 1364.04 C 1402.42 1382.2 1407.34 1426.23 1386.2 1444.2 C 1365 1462.21 1324.67 1458.81 1299.27 1457.26 C 1299.65 1458.77 1300.06 1460.28 1300.51 1461.78 C 1310.62 1495.8 1352.55 1483.99 1376.15 1474.15 C 1389.28 1468.68 1394.73 1482.55 1396.98 1492.72 C 1395.99 1518.19 1363.95 1524.19 1343.72 1526.6 C 1318.09 1529.58 1292.38 1525.38 1271.72 1509.14 C 1234.83 1480.14 1231.51 1408.41 1260.42 1373.11 C 1276.82 1353.08 1295.24 1345.82 1320.81 1343.42 z"/>
<path transform="translate(0,0)" fill="rgb(255,255,254)" d="M 1321.24 1389.18 C 1328.02 1388.49 1332.96 1387.97 1338.76 1392.1 C 1345.35 1396.78 1352.23 1407.4 1345.56 1414.73 C 1341.19 1419.54 1330.39 1419.2 1324.25 1419.6 C 1316.97 1420.26 1305.85 1420.2 1298.28 1420.41 C 1301.6 1404.34 1304.96 1395.03 1321.24 1389.18 z"/>
<path transform="translate(0,0)" fill="rgb(1,1,1)" d="M 897.715 1611.41 C 907.011 1611.01 918.457 1610.4 925.935 1616.92 C 928.934 1619.53 930.087 1623.33 930.753 1627.13 C 932.545 1637.35 931.7 1648.44 931.595 1658.78 C 931.401 1677.84 930.748 1697.04 931.572 1716.09 C 931.953 1724.88 932.796 1736.5 939.987 1742.59 C 943.126 1745.24 946.951 1746.13 950.992 1745.76 C 962.59 1744.7 971.798 1736.19 975.156 1725.3 C 982.704 1700.83 969.228 1633.51 982.568 1617.94 C 986.469 1613.39 991.947 1611.64 997.754 1611.18 C 1006.45 1610.49 1021.76 1609.71 1028.43 1615.95 C 1031.85 1619.16 1033.49 1623.82 1034.25 1628.34 C 1036.7 1642.84 1034.12 1679.25 1034.4 1696.36 C 1034.19 1712.59 1034.39 1728.87 1034.33 1745.11 C 1034.29 1756.33 1035.35 1771.66 1033.33 1782.39 C 1031.13 1794.08 999.178 1793.5 991.013 1789.36 C 985.221 1786.43 983.36 1779.81 981.596 1774.29 C 974.409 1781.53 964.488 1789.29 954.678 1792.37 C 927.832 1800.8 889.124 1791.71 880.004 1761.93 C 877.729 1754.28 876.269 1746.41 875.649 1738.45 C 874.428 1723.67 872.028 1626.32 877.692 1618.09 C 881.94 1611.92 891.067 1612.02 897.715 1611.41 z"/>
<path transform="translate(0,0)" fill="rgb(1,1,1)" d="M 1079.03 1612.35 C 1097.33 1611.57 1119.69 1613.3 1138.9 1612.61 C 1158.59 1612.58 1178.26 1612.27 1197.93 1612.88 C 1214.9 1613.4 1215.31 1640.91 1209.78 1650.82 C 1200.07 1668.22 1184.97 1684.5 1172.2 1699.94 L 1136.25 1744.11 C 1154.57 1743.85 1195.29 1740.81 1210.56 1746.62 C 1217.42 1749.23 1228.83 1789.28 1199.83 1791.23 C 1158.92 1791.66 1116.99 1790.97 1076 1791.05 C 1066.87 1791.07 1060.07 1784.13 1059.24 1774.94 C 1058.58 1767.05 1060.02 1759.12 1063.44 1751.97 C 1068.76 1741.02 1082.89 1725.29 1091.12 1715.55 L 1139.21 1659.66 C 1119.07 1657.37 1086.95 1662.79 1070.12 1656.6 C 1059.59 1652.73 1054.53 1616.64 1079.03 1612.35 z"/>
<path transform="translate(0,0)" fill="rgb(1,1,1)" d="M 1253.92 1613.03 C 1262.85 1612.43 1288.17 1612.29 1297.63 1612.93 C 1311.88 1613.89 1381.99 1610.08 1389.26 1616.86 C 1409.68 1635.88 1372.47 1676.11 1359.35 1692.3 C 1344.96 1710.31 1330.32 1728.12 1315.44 1745.73 C 1335.04 1744.92 1370.34 1741.85 1388.12 1747.94 C 1397.56 1751.17 1403.84 1788.25 1383.05 1791.23 L 1295.35 1791.22 C 1281.34 1791.24 1266.55 1791.6 1252.69 1790.9 C 1235.19 1789.99 1236.98 1762.52 1242.69 1752.04 C 1248.58 1741.23 1259.2 1730.44 1267.05 1720.93 C 1284.3 1700.04 1302.8 1680.01 1320.05 1659.15 C 1298.83 1659.03 1277.44 1660.01 1256.33 1658.86 C 1240.45 1658 1241.07 1637.59 1242.76 1626.17 C 1243.72 1619.69 1248.75 1616.08 1253.92 1613.03 z"/>
<path transform="translate(0,0)" fill="rgb(1,1,1)" d="M 1081.77 1345.42 C 1093.08 1345.16 1111.28 1344.75 1115.93 1356.68 C 1129.44 1391.33 1136.7 1430.73 1147.98 1465.96 C 1148.33 1464.14 1148.72 1462.32 1149.14 1460.51 C 1156.97 1425.8 1167.87 1389.06 1180.32 1355.78 C 1185.89 1340.89 1226.47 1342.25 1231.6 1355.54 C 1236.51 1368.26 1223.09 1398.75 1218.48 1411.75 C 1210.69 1433.17 1203.1 1454.67 1195.71 1476.23 C 1183.15 1512.04 1184.47 1528.13 1144.47 1525.12 C 1125.88 1523.73 1120.59 1526.2 1112.9 1506.62 C 1097.1 1466.39 1083.44 1426.26 1068.4 1385.83 C 1060.97 1365.78 1052.14 1347.7 1081.77 1345.42 z"/>
<path transform="translate(0,0)" fill="rgb(1,1,1)" d="M 910.324 1277.19 C 917.347 1276.59 925.402 1275.91 932.367 1277.16 C 938.277 1278.21 945.402 1281.32 948.035 1287.14 C 953.863 1300.01 951.08 1322.33 951.041 1336.43 C 950.992 1353.73 948.233 1477.61 951.552 1483.94 C 953.614 1487.86 959.56 1490.12 962.115 1494.36 C 964.153 1497.75 964.865 1501.61 963.785 1505.45 C 961.739 1512.72 954.045 1518.64 947.829 1522.19 C 923.394 1531.29 895.48 1525.24 895.073 1494.94 C 894.197 1429.83 894.918 1364.51 895.109 1299.38 C 895.148 1286.1 897.534 1281.31 910.324 1277.19 z"/>
<path transform="translate(0,0)" fill="rgb(1,1,1)" d="M 1003.73 1346.19 C 1011.75 1345.68 1020.57 1344.79 1028.4 1347.04 C 1032.66 1348.27 1037.47 1350.6 1039.44 1354.79 C 1041.43 1359.05 1042.18 1366 1042.51 1370.67 C 1043.68 1386.87 1044.27 1507.43 1040.03 1515.47 C 1036.93 1521.34 1031.73 1523.23 1025.68 1524.94 C 1015.35 1525.71 1004.86 1526.92 995.017 1522.3 C 986.654 1519.28 985.122 1506.77 985.139 1498.38 C 985.227 1453.31 984.584 1407.89 985.593 1362.82 C 985.836 1351.99 994.675 1348.47 1003.73 1346.19 z"/>
<path transform="translate(0,0)" fill="rgb(1,1,1)" d="M 1008.34 1269.42 C 1025.18 1266.08 1041.54 1277.01 1044.9 1293.85 C 1048.26 1310.68 1037.35 1327.06 1020.51 1330.43 C 1003.66 1333.81 987.257 1322.88 983.892 1306.02 C 980.528 1289.16 991.477 1272.77 1008.34 1269.42 z"/>
<path transform="translate(0,0)" fill="rgb(170,166,162)" d="M 649.273 918.699 C 641.164 868.596 651.885 823.448 665.609 776.122 C 664.118 784.729 661.399 791.96 659.658 800.351 C 655.936 818.282 652.205 832.974 650.846 851.378 C 648.92 857.648 648.372 898.219 649.962 903.907 C 649.595 909.95 649.632 911.894 650.346 917.9 L 649.273 918.699 z"/>
<path transform="translate(0,0)" fill="rgb(164,149,125)" d="M 649.962 903.907 C 651.089 907.695 652.357 912.737 653.996 916.188 L 656.372 929.983 C 655.856 937.531 654.933 935.531 652.891 942.029 C 651.18 935.024 650.059 925.843 649.273 918.699 L 650.346 917.9 C 649.632 911.894 649.595 909.95 649.962 903.907 z"/>
<path transform="translate(0,0)" fill="rgb(98,88,87)" d="M 694.121 1250.92 C 696.17 1248.58 699.22 1246.94 702.311 1247.38 L 706.126 1253.38 L 706.629 1254.31 C 709.318 1256.35 712.042 1258.36 714.799 1260.31 C 704.841 1262.27 699.628 1259.4 694.121 1250.92 z"/>
</svg>