<svg version="1.1" xmlns="http://www.w3.org/2000/svg" style="display: block;" viewBox="0 0 2048 2048" width="1024" height="1024" preserveAspectRatio="none">
<path transform="translate(0,0)" fill="rgb(232,227,216)" d="M 0 0 L 2048 0 L 2048 2048 L 0 2048 L 0 0 z"/>
<path transform="translate(0,0)" fill="rgb(0,0,0)" d="M 1017.41 523.974 C 1026.99 494.035 1034.89 471.35 1050.59 443.732 C 1090.36 373.757 1158.46 323.843 1235.71 302.522 C 1258 297.853 1290.69 287.852 1312.62 295.239 C 1320.62 297.935 1317.45 318.984 1316.49 325.992 C 1311.53 360.963 1299.37 394.526 1280.79 424.56 C 1234.06 500.967 1160.62 545.782 1074.96 566.529 C 1081.81 570.254 1107.8 573.645 1116.9 575.783 C 1225.8 601.36 1326.67 676.326 1363.32 784.696 C 1429.17 979.397 1284.67 1158.1 1095.25 1191.96 C 1018.74 1205.64 941.642 1198.84 871.682 1166.57 C 840.495 1179.84 809.481 1193.52 778.646 1207.6 C 760.95 1215.72 742.1 1226.51 723.515 1232.11 C 720.752 1232.95 718.3 1232.9 715.626 1231.78 C 712.955 1230.66 709.424 1227.99 708.903 1224.94 C 707.615 1217.41 754.381 1108.97 760.894 1093 C 585.793 919.278 676.814 657.458 896.626 585.481 C 903.896 583.101 933.375 575.801 937.969 572.998 C 933.805 572.174 929.649 571.315 925.501 570.42 C 851.646 554.443 790.031 516.469 748.28 452.056 C 741.23 442.48 717.898 397.645 721.979 386.241 C 729.858 364.222 819.82 381.014 834.351 384.83 C 915.944 406.257 974.854 452.012 1017.41 523.974 z"/>
<path transform="translate(0,0)" fill="rgb(242,178,57)" d="M 1032.99 573.257 C 1047.09 571.806 1061.11 569.559 1074.96 566.529 C 1081.81 570.254 1107.8 573.645 1116.9 575.783 C 1225.8 601.36 1326.67 676.326 1363.32 784.696 C 1429.17 979.397 1284.67 1158.1 1095.25 1191.96 C 1018.74 1205.64 941.642 1198.84 871.682 1166.57 C 840.495 1179.84 809.481 1193.52 778.646 1207.6 C 760.95 1215.72 742.1 1226.51 723.515 1232.11 C 720.752 1232.95 718.3 1232.9 715.626 1231.78 C 712.955 1230.66 709.424 1227.99 708.903 1224.94 C 707.615 1217.41 754.381 1108.97 760.894 1093 C 585.793 919.278 676.814 657.458 896.626 585.481 C 903.896 583.101 933.375 575.801 937.969 572.998 C 962.529 576.873 987.391 578.505 1012.25 577.873 C 1012.75 588.306 1012.67 600.348 1012.81 610.915 C 887.73 626.786 819.659 736.855 808.984 854.792 C 797.694 979.535 875.93 1134.38 1013.49 1143.43 C 1150.58 1149.34 1232.31 1015.56 1239.97 893.629 C 1247.74 769.814 1170.01 617.838 1033.05 610.722 L 1032.99 573.257 z"/>
<path transform="translate(0,0)" fill="rgb(128,139,71)" d="M 1033.12 630.842 C 1064.81 632.497 1094.07 644.087 1119.36 663.067 C 1149.1 682.859 1176.22 717.538 1191.58 749.765 C 1235.04 840.978 1229.23 950.227 1173.74 1034.8 C 1114.16 1125.62 1004.35 1154.99 917.88 1082.83 C 913.948 1079.53 909.731 1075.95 906.242 1072.17 C 899.701 1067.08 891.733 1057.22 886.291 1050.76 C 777.99 922.171 825.063 656.455 1012.87 631.033 L 1013.15 644.629 C 1000.31 645.483 986.541 648.59 974.827 654.103 C 964.55 658.939 955.601 669.715 962.73 680.925 C 968.411 689.86 986.385 695.438 996.805 697.012 C 1023.4 700.936 1056.45 701.361 1079.93 686.381 C 1088.39 680.988 1092.39 671.675 1085.16 663.399 C 1072.32 648.727 1051.27 646.165 1033.14 644.195 L 1033.12 630.842 z"/>
<path transform="translate(0,0)" fill="rgb(87,113,77)" d="M 1119.36 663.067 C 1149.1 682.859 1176.22 717.538 1191.58 749.765 C 1235.04 840.978 1229.23 950.227 1173.74 1034.8 C 1114.16 1125.62 1004.35 1154.99 917.88 1082.83 C 913.948 1079.53 909.731 1075.95 906.242 1072.17 C 913.503 1073.09 925.957 1081.4 933.547 1084.35 C 1015.84 1116.55 1100.8 1079.87 1145.58 1006.64 C 1206.95 907.593 1204.11 776.705 1132.17 683.673 C 1128.32 678.687 1120.07 668.727 1119.36 663.067 z"/>
<path transform="translate(0,0)" fill="rgb(0,0,0)" d="M 939.435 944.384 C 992.3 942.119 1048.39 945.645 1101.6 944.292 C 1110.65 944.062 1120.42 946.851 1119.36 957.935 C 1116.85 984.147 1102.97 1009.76 1084.38 1027.95 C 1074.66 1035.72 1066.45 1041.05 1054.66 1045.43 C 1032.13 1053.82 1007.18 1052.79 985.406 1042.59 C 959.536 1030.58 944.001 1007.24 934.399 981.074 C 931.512 973.204 926.755 957.917 930.861 949.803 C 932.759 946.055 935.703 945.252 939.435 944.384 z"/>
<path transform="translate(0,0)" fill="rgb(225,72,81)" d="M 999.492 993.224 C 1011.65 992.357 1014.15 992.098 1024.09 999.338 C 1043.52 987.492 1063.66 994.502 1081.39 1005.56 C 1072.22 1016.13 1065.66 1019.74 1052.91 1025.19 C 1020.64 1035.84 990.617 1030.03 966.421 1005.87 C 978.281 998.619 985.925 995.757 999.492 993.224 z"/>
<path transform="translate(0,0)" fill="rgb(0,0,0)" d="M 924.147 799.19 C 985.279 794.647 1001.62 879.006 956.311 909.268 C 951.388 912.556 945.529 914.466 939.932 916.343 C 874.662 929.19 853.729 816.062 924.147 799.19 z"/>
<path transform="translate(0,0)" fill="rgb(232,227,216)" d="M 921.965 815.981 C 940.064 817.254 933.27 845.701 912.377 851.844 C 890.09 848.245 902.774 821.07 921.965 815.981 z"/>
<path transform="translate(0,0)" fill="rgb(0,0,0)" d="M 1105.57 799.256 C 1115.57 798.372 1125.85 798.069 1134.91 802.891 C 1180.3 827.047 1177.97 899.666 1127.21 915.963 C 1062.06 929.332 1038.87 820.795 1105.57 799.256 z"/>
<path transform="translate(0,0)" fill="rgb(232,227,216)" d="M 1105.05 816.241 C 1125.77 819.135 1115.47 847.053 1095.47 852.189 C 1074.2 846.683 1087.51 820.529 1105.05 816.241 z"/>
<path transform="translate(0,0)" fill="rgb(232,227,216)" d="M 926.13 701.184 C 930.01 700.681 935.33 700.071 938.977 701.441 C 942.447 702.713 945.214 705.398 946.589 708.829 C 950.228 717.925 944.721 735.101 940.347 743.625 C 932.06 759.769 921.922 773.093 904.38 779.154 C 860.147 781.924 892.101 715.321 926.13 701.184 z"/>
<path transform="translate(0,0)" fill="rgb(87,113,77)" d="M 1295.89 325.935 C 1296.24 329.522 1294.41 337.883 1293.51 341.58 C 1265.2 458.962 1167.8 530.108 1052.9 550.025 L 1052.98 548.657 C 1062.28 536.883 1083.59 517.624 1095.22 506.733 C 1119.55 483.899 1144.05 461.255 1168.73 438.801 C 1194.1 415.444 1219.67 392.303 1245.43 369.381 C 1260.53 355.802 1279.86 337.564 1295.89 325.935 z"/>
<path transform="translate(0,0)" fill="rgb(87,113,77)" d="M 1274.6 315.369 L 1275.28 316.05 C 1263.99 328.429 1247.36 342.419 1234.6 353.711 C 1216.37 369.821 1198.23 386.045 1180.21 402.382 C 1148.38 431.05 1116.8 459.989 1085.46 489.197 C 1069.88 503.814 1054.57 519.132 1038.96 533.514 C 1038.41 533.192 1038.78 533.533 1037.96 531.565 C 1043.05 497.124 1062.76 457.44 1083.49 429.378 C 1132.29 363.326 1194.88 328.403 1274.6 315.369 z"/>
<path transform="translate(0,0)" fill="rgb(87,113,77)" d="M 748.763 409.472 C 773.17 419.095 976.116 540.518 990.688 557.51 C 891.638 560.814 787.291 502.723 748.763 409.472 z"/>
<path transform="translate(0,0)" fill="rgb(87,113,77)" d="M 764.559 395.207 C 769.941 394.884 777.084 395.718 782.564 396.104 C 874.534 402.583 961.162 456.408 1001.97 540.147 C 996.145 537.507 979.268 525.532 973.293 521.51 C 959.15 512.108 944.916 502.845 930.593 493.721 C 894.361 470.508 857.557 448.2 820.216 426.817 C 802.609 416.62 782.378 404.368 764.559 395.207 z"/>
<path transform="translate(0,0)" fill="rgb(0,0,0)" d="M 759.537 1261.37 C 816.303 1255.61 862.538 1292.52 869.512 1349.16 C 877.236 1411.9 855.386 1472.48 786.244 1481.85 C 725.174 1488.84 680.911 1453.38 673.093 1392.49 C 669.133 1359.27 673.587 1322.77 694.621 1295.63 C 711.424 1273.95 733.083 1264.64 759.537 1261.37 z"/>
<path transform="translate(0,0)" fill="rgb(232,227,216)" d="M 767.878 1308.31 C 812.817 1307.15 821.131 1354.96 815.936 1389.7 C 812.149 1415.03 801.256 1432.89 774.014 1435.5 C 733.469 1436.01 722.35 1399.28 724.75 1365.43 C 726.713 1337.74 736.892 1312.36 767.878 1308.31 z"/>
<path transform="translate(0,0)" fill="rgb(0,0,0)" d="M 759.784 1509.49 C 804.437 1508.85 853.552 1518.74 843.337 1580.13 C 840.811 1595.31 829.488 1604.61 816.903 1612.22 C 850.808 1628.91 862.022 1659.44 845.934 1695.5 C 838.675 1711.77 820.485 1719.4 803.958 1724.17 C 784.567 1728.18 759.64 1726.64 739.616 1727.06 C 728.984 1727.29 716.559 1727.23 706.052 1726.8 C 701.244 1726.6 693.18 1724.85 690.465 1720.64 C 688.24 1717.18 687.413 1715.94 687.226 1711.67 C 686.628 1697.99 686.811 1683.8 686.786 1670.11 L 686.555 1601.03 C 686.586 1580.45 685.022 1537.88 687.268 1519.8 C 698.499 1503.9 739.955 1509.84 759.784 1509.49 z"/>
<path transform="translate(0,0)" fill="rgb(232,227,216)" d="M 737.182 1636.97 C 750.607 1636.77 764.406 1636.21 777.78 1637.06 C 798.76 1638.4 808.962 1660.35 794.54 1676.41 C 782.37 1685.05 753.227 1682.46 737.171 1682.29 L 737.182 1636.97 z"/>
<path transform="translate(0,0)" fill="rgb(232,227,216)" d="M 737.263 1554.17 C 753.311 1553.81 790.926 1548.16 793.244 1569.86 C 794.21 1578.89 792.421 1583.92 787.023 1590.89 C 773.811 1598.31 753.087 1596.15 737.609 1595.98 L 737.263 1554.17 z"/>
<path transform="translate(0,0)" fill="rgb(0,0,0)" d="M 1074.21 1502.25 C 1076.19 1502.14 1078.17 1502.06 1080.15 1502.01 C 1087.73 1501.83 1096.68 1502.3 1102.26 1508.16 C 1108.11 1514.29 1105.63 1566.94 1105.75 1578.24 C 1121.61 1565.99 1133.05 1559.83 1153.25 1561.27 C 1204.08 1564.89 1217.83 1614.87 1213.85 1658.07 C 1211.66 1681.84 1206.31 1699.56 1188.01 1715.4 C 1159.24 1736.15 1133.2 1733.18 1104.63 1714.38 C 1101.85 1719.09 1098.75 1725.4 1093.12 1727.39 C 1084.6 1730.42 1058.64 1730.2 1056.87 1718.24 C 1055.54 1709.19 1056.08 1694.96 1056.07 1685.3 L 1056.04 1617.86 L 1055.84 1551.27 C 1055.79 1540.17 1055.55 1529.05 1055.78 1517.96 C 1056.03 1506.32 1064.64 1504 1074.21 1502.25 z"/>
<path transform="translate(0,0)" fill="rgb(232,227,216)" d="M 1128.26 1604.15 C 1143.05 1602.3 1156.11 1607.86 1160.7 1622.51 C 1167.95 1645.66 1166.67 1676.41 1140.94 1686.22 C 1110.72 1691.7 1103.05 1665.49 1105.01 1641.08 C 1106.46 1623.05 1109.75 1610.54 1128.26 1604.15 z"/>
<path transform="translate(0,0)" fill="rgb(0,0,0)" d="M 1294.62 1315.38 C 1316.13 1312.03 1343 1318.42 1358.35 1334.57 C 1368.18 1344.97 1373.43 1358.88 1372.91 1373.18 C 1370.98 1425.84 1310.24 1418.02 1274.7 1416.75 C 1276.06 1421.09 1277.71 1425.52 1280.31 1429.28 C 1303.69 1463.15 1350.04 1429.97 1360.01 1433.58 C 1363.62 1434.88 1365.73 1439.39 1367.4 1442.52 C 1373.1 1471.47 1350.94 1478.09 1326.8 1482.12 C 1303.16 1486.07 1275.31 1482.21 1255.63 1467.65 C 1214.99 1437.59 1214.74 1357.35 1256.55 1328.14 C 1268.21 1319.97 1280.55 1317.09 1294.62 1315.38 z"/>
<path transform="translate(0,0)" fill="rgb(232,227,216)" d="M 1297.41 1354.16 C 1308.94 1353.16 1325.62 1354.94 1326.99 1369.78 C 1327.28 1373.07 1326.26 1376.34 1324.16 1378.89 C 1319.04 1385 1312.66 1385.02 1305.25 1385.89 L 1273.33 1386.71 C 1275.82 1369.1 1279.48 1359.88 1297.41 1354.16 z"/>
<path transform="translate(0,0)" fill="rgb(0,0,0)" d="M 895.055 1563.26 C 903.806 1562.89 915.46 1562.01 922.378 1568.33 C 925.234 1570.94 926.518 1574.39 927.045 1578.15 C 928.161 1586.14 927.3 1595 927.238 1603.08 C 927.097 1621.33 926.629 1639.67 926.939 1657.91 C 927.076 1665.97 927.929 1675.85 934.31 1681.59 C 938.405 1685.27 943.707 1686.34 949.086 1685.98 C 957.27 1685.43 964.801 1682.47 969.109 1675.14 C 982.284 1652.72 964.151 1584.72 978.522 1569.43 C 983.104 1564.55 989.691 1563.68 996.035 1563.38 C 1003.53 1563.02 1013.65 1562.68 1019.33 1568.34 C 1022.12 1571.13 1023.45 1575.54 1024.06 1579.32 C 1026.12 1591.92 1024.24 1629.53 1024.4 1644.25 C 1024.5 1657.85 1027.43 1712.71 1022.65 1721.38 C 1020.65 1724.99 1015.98 1726.95 1012.12 1727.78 C 1004.83 1729.34 989.22 1729.6 982.925 1725.31 C 977.26 1721.46 976.365 1714.73 975.322 1708.51 C 966.366 1717.78 958.016 1724.85 945.132 1727.68 C 919.396 1734.34 883.707 1723.59 879.312 1693.15 C 874.1 1657.05 878.518 1614.61 876.816 1577.68 C 876.354 1567.65 887.2 1564.62 895.055 1563.26 z"/>
<path transform="translate(0,0)" fill="rgb(0,0,0)" d="M 1287.62 1564.48 L 1338.92 1564.11 C 1368.43 1564.13 1365.92 1575.66 1364.89 1599.13 C 1359.11 1608.69 1348.5 1619.99 1341.18 1628.68 C 1325.43 1647.39 1308.67 1665.26 1294.01 1684.87 C 1305.86 1684.47 1353.36 1681.42 1360.93 1687.61 C 1365.82 1691.61 1366.7 1697.41 1366.99 1703.37 C 1367.3 1709.79 1367.04 1717.06 1362.29 1721.96 C 1353.89 1730.63 1327.5 1727.1 1315.5 1727.02 C 1301.4 1726.93 1246.1 1730.29 1237.25 1723.55 C 1232.83 1720.18 1231.14 1714.45 1230.61 1709.16 C 1229.96 1702.63 1230.61 1694.85 1233.55 1688.88 C 1239.15 1677.55 1250.79 1666.97 1259.14 1657.39 C 1273.5 1641.05 1287.67 1624.54 1301.63 1607.87 C 1285.67 1607.69 1269.05 1608.08 1253.08 1608.6 C 1223.22 1609.57 1225.49 1559.39 1257.1 1564.4 C 1262.97 1565.33 1280.85 1564.53 1287.62 1564.48 z"/>
<path transform="translate(0,0)" fill="rgb(0,0,0)" d="M 1135.2 1428.35 C 1142.48 1410.46 1160.39 1327.03 1170.9 1320.57 C 1178.83 1315.71 1192.81 1315.65 1201.67 1317.74 C 1206.53 1318.89 1211.92 1321.34 1214.33 1326 C 1218.73 1334.51 1206.06 1362.38 1202.52 1372.26 C 1195.74 1392.37 1187.84 1412.67 1180.77 1432.76 C 1176.44 1445.05 1171.52 1458.57 1166.18 1470.38 C 1164.33 1474.46 1159.33 1479.4 1154.66 1479.99 C 1143.47 1481.41 1120.04 1483.03 1110.17 1477.05 C 1106.5 1474.83 1104.47 1471.49 1102.93 1467.99 C 1093.07 1445.57 1084.96 1421.63 1076.83 1398.53 C 1069.7 1377.82 1060.81 1357.59 1054.96 1336.49 C 1051.14 1322.7 1061.03 1319.38 1072.17 1317.24 C 1097.61 1315.57 1102.77 1316.67 1109.86 1340.86 C 1118.34 1369.81 1125.99 1399.72 1135.2 1428.35 z"/>
<path transform="translate(0,0)" fill="rgb(0,0,0)" d="M 910.408 1249.19 L 912.258 1249.06 C 948.328 1246.75 945.555 1254.56 946.076 1284.75 C 946.994 1338.08 944.189 1392.5 946.114 1445.69 C 964.046 1456.65 963.486 1471.91 944.023 1480.51 C 933.312 1481.64 920.431 1482.91 910.345 1478.48 C 904.177 1475.76 899.202 1470.55 897.105 1464.09 C 894.202 1455.15 894.16 1287.07 895.094 1266.57 C 895.23 1263.59 895.402 1260.65 896.827 1257.96 C 899.639 1252.67 905.041 1250.93 910.408 1249.19 z"/>
<path transform="translate(0,0)" fill="rgb(0,0,0)" d="M 1001.91 1317.26 C 1010.36 1316.53 1029.96 1317.41 1032.66 1328.5 C 1033.7 1332.78 1033.93 1341.91 1033.9 1346.42 C 1033.66 1385.89 1034.71 1425.45 1033.92 1464.9 C 1033.67 1477.24 1027.4 1479.18 1016.67 1480.95 C 1001.75 1481.2 992.419 1483.51 983.247 1469.93 C 981.833 1445.32 983.529 1416.05 982.847 1390.86 C 983.059 1372.19 982.083 1353.52 982.335 1334.85 C 982.508 1322.02 991.029 1319.24 1001.91 1317.26 z"/>
<path transform="translate(0,0)" fill="rgb(0,0,0)" d="M 1002.01 1242.11 C 1017.94 1238.26 1033.96 1248.1 1037.74 1264.05 C 1041.52 1280 1031.62 1295.98 1015.65 1299.7 C 999.78 1303.39 983.91 1293.55 980.154 1277.69 C 976.398 1261.84 986.169 1245.93 1002.01 1242.11 z"/>
</svg>
